<svg xmlns="http://www.w3.org/2000/svg" width="60" height="60" viewBox="0 0 60 60"><g transform="translate(-300 -4295)"><g transform="translate(300 4295)" fill="#fff"><path d="M30,0A30.085,30.085,0,0,1,52.554,10.218,29.7,29.7,0,0,1,60,30,30,30,0,1,1,30,0Z" stroke="none"/><path d="M 30 1 C 26.08457946777344 1 22.28681945800781 1.766620635986328 18.71220016479492 3.278549194335938 C 15.2590217590332 4.739128112792969 12.15753936767578 6.830268859863281 9.493900299072266 9.493900299072266 C 6.830268859863281 12.15753936767578 4.739128112792969 15.2590217590332 3.278549194335938 18.71220016479492 C 1.766620635986328 22.28681945800781 1 26.08457946777344 1 30 C 1 33.91542053222656 1.766620635986328 37.71318054199219 3.278549194335938 41.28779983520508 C 4.739128112792969 44.74098205566406 6.830268859863281 47.84246063232422 9.493900299072266 50.50609970092773 C 12.15753936767578 53.16973114013672 15.2590217590332 55.26087188720703 18.71220016479492 56.72145080566406 C 22.28681945800781 58.23337936401367 26.08457946777344 59 30 59 C 33.91542053222656 59 37.71318054199219 58.23337936401367 41.28779983520508 56.72145080566406 C 44.74098205566406 55.26087188720703 47.84246063232422 53.16973114013672 50.50609970092773 50.50609970092773 C 53.16973114013672 47.84246063232422 55.26087188720703 44.74098205566406 56.72145080566406 41.28779983520508 C 58.23337936401367 37.71318054199219 59 33.91542053222656 59 30 C 59 26.37773132324219 58.34457015991211 22.84223175048828 57.05191040039062 19.49169158935547 C 55.81280136108398 16.27997970581055 54.04901123046875 13.38438034057617 51.80924987792969 10.885009765625 C 49.02167892456055 7.771839141845703 45.73936080932617 5.331718444824219 42.05345916748047 3.632431030273438 C 38.26460266113281 1.88568115234375 34.209228515625 1 30 1 M 30 0 C 38.8807373046875 0 46.86021041870117 3.858810424804688 52.55424118041992 10.21794128417969 C 57.10826110839844 15.29980087280273 60 22.31219863891602 60 30 C 60 46.56853866577148 46.56853866577148 60 30 60 C 13.43146133422852 60 0 46.56853866577148 0 30 C 0 13.43146133422852 13.43146133422852 0 30 0 Z" stroke="none" fill="rgba(25,25,25,0.1)"/></g><g transform="translate(314 4309)"><rect width="32" height="32" fill="#fff"/><path d="M14.535,18.57h0a.389.389,0,0,1-.4.382H8.69v2.285h.9a.382.382,0,1,1,0,.763h-1.3a.389.389,0,0,1-.4-.382V18.57a.389.389,0,0,1,.4-.382h.514L6.293,14.111a.37.37,0,0,1,0-.39L8.777,9.7a.4.4,0,0,1,.543-.133.374.374,0,0,1,.138.523L7.094,13.916l2.634,4.272h4.411a.389.389,0,0,1,.4.382Z" transform="translate(3 5)" fill="#191919" stroke="#191919" stroke-width="0.5"/><path d="M27,13.046v2.405a.389.389,0,0,1-.4.382h-2.5a.389.389,0,0,1-.4-.382V13.046a.389.389,0,0,1,.4-.382h.822a10.8,10.8,0,0,0-2.959-7.046A11.57,11.57,0,0,0,15.122,2.1v.684a.389.389,0,0,1-.4.382h-.582L20.663,13.72a.37.37,0,0,1,0,.39l-2.514,4.078h.514a.389.389,0,0,1,.4.382v3.048a.389.389,0,0,1-.4.382H11.179a.382.382,0,1,1,0-.763h7.088V18.951H15.723a.389.389,0,0,1-.4-.382.372.372,0,0,1,0-.039.391.391,0,0,1,.394-.343h1.5l2.635-4.272L13.874,4.224v7.065a1.54,1.54,0,0,1,1.188,1.478,1.585,1.585,0,0,1-3.167,0,1.54,1.54,0,0,1,1.188-1.478V4.224L10.274,8.769a.4.4,0,0,1-.543.133.374.374,0,0,1-.138-.523l3.219-5.21H12.23a.389.389,0,0,1-.4-.382V2.1A11.57,11.57,0,0,0,4.985,5.619a10.805,10.805,0,0,0-2.959,7.046h.866a.389.389,0,0,1,.4.382v2.405a.389.389,0,0,1-.4.382H.4a.389.389,0,0,1-.4-.382V13.046a.389.389,0,0,1,.4-.382h.838A11.551,11.551,0,0,1,4.4,5.106,12.273,12.273,0,0,1,8.969,2.052H3.229A1.637,1.637,0,0,1,1.643,3.218,1.616,1.616,0,0,1,0,1.635,1.616,1.616,0,0,1,1.643.051a1.633,1.633,0,0,1,1.6,1.238h8.587V.382A.389.389,0,0,1,12.23,0h2.5a.389.389,0,0,1,.4.382v.907h8.587a1.634,1.634,0,0,1,1.6-1.238,1.616,1.616,0,0,1,1.643,1.584,1.616,1.616,0,0,1-1.643,1.584,1.637,1.637,0,0,1-1.585-1.166H17.987a12.274,12.274,0,0,1,4.571,3.055,11.551,11.551,0,0,1,3.164,7.558H26.6a.389.389,0,0,1,.4.382ZM24.461,1.635a.852.852,0,0,0,1.7,0,.852.852,0,0,0-1.7,0Zm-21.966,0A.837.837,0,0,0,1.643.814a.837.837,0,0,0-.851.821.837.837,0,0,0,.851.821.837.837,0,0,0,.851-.821ZM.792,13.428V15.07H2.5V13.428ZM13.478,12a.764.764,0,1,0,.792.763A.779.779,0,0,0,13.478,12ZM14.33.763h-1.7V2.405h1.7V1.67h0ZM26.208,13.428H24.5V15.07h1.7Z" transform="translate(3 5)" fill="#191919" stroke="#191919" stroke-width="0.5"/></g></g></svg>