<svg xmlns="http://www.w3.org/2000/svg" width="60" height="60" viewBox="0 0 60 60"><g transform="translate(-300 -4190)"><g transform="translate(300 4190)" fill="#fff"><path d="M30,0A30,30,0,1,1,0,30,30,30,0,0,1,30,0Z" stroke="none"/><path d="M 30 1 C 26.08457946777344 1 22.28681945800781 1.766620635986328 18.71220016479492 3.278549194335938 C 15.2590217590332 4.739128112792969 12.15753936767578 6.830268859863281 9.493900299072266 9.493900299072266 C 6.830268859863281 12.15753936767578 4.739128112792969 15.2590217590332 3.278549194335938 18.71220016479492 C 1.766620635986328 22.28681945800781 1 26.08457946777344 1 30 C 1 33.91542053222656 1.766620635986328 37.71318054199219 3.278549194335938 41.28779983520508 C 4.739128112792969 44.74098205566406 6.830268859863281 47.84246063232422 9.493900299072266 50.50609970092773 C 12.15753936767578 53.16973114013672 15.2590217590332 55.26087188720703 18.71220016479492 56.72145080566406 C 22.28681945800781 58.23337936401367 26.08457946777344 59 30 59 C 33.91542053222656 59 37.71318054199219 58.23337936401367 41.28779983520508 56.72145080566406 C 44.74098205566406 55.26087188720703 47.84246063232422 53.16973114013672 50.50609970092773 50.50609970092773 C 53.16973114013672 47.84246063232422 55.26087188720703 44.74098205566406 56.72145080566406 41.28779983520508 C 58.23337936401367 37.71318054199219 59 33.91542053222656 59 30 C 59 26.08457946777344 58.23337936401367 22.28681945800781 56.72145080566406 18.71220016479492 C 55.26087188720703 15.2590217590332 53.16973114013672 12.15753936767578 50.50609970092773 9.493900299072266 C 47.84246063232422 6.830268859863281 44.74098205566406 4.739128112792969 41.28779983520508 3.278549194335938 C 37.71318054199219 1.766620635986328 33.91542053222656 1 30 1 M 30 0 C 46.56853866577148 0 60 13.43146133422852 60 30 C 60 46.56853866577148 46.56853866577148 60 30 60 C 13.43146133422852 60 0 46.56853866577148 0 30 C 0 13.43146133422852 13.43146133422852 0 30 0 Z" stroke="none" fill="rgba(25,25,25,0.1)"/></g><g transform="translate(314 4204)"><rect width="32" height="32" fill="#fff"/><path d="M25.914,9.438a1.862,1.862,0,0,1,0,1.134l-4.282,13.2A1.787,1.787,0,0,1,21,24.66,1.7,1.7,0,0,1,19.98,25H6.02A1.7,1.7,0,0,1,5,24.66a1.787,1.787,0,0,1-.631-.888L.09,10.572a1.863,1.863,0,0,1,0-1.135A1.808,1.808,0,0,1,.74,8.523L12,.33a1.679,1.679,0,0,1,2,0l11.26,8.194a1.808,1.808,0,0,1,.652.914ZM13.5,1.06c-.022-.015-.044-.021-.065-.033V8.249l3.987,2.876L24.809,9.3c-.017-.015-.029-.035-.047-.048Zm3.315,10.716L13,9.027,9.187,11.776l1.517,4.3H15.3ZM1.24,9.253c-.019.013-.03.033-.048.049L8.58,11.126l3.987-2.876V1.024c-.02.013-.044.018-.063.033ZM5.195,23.489c.005.017.016.029.023.045l4.7-7.079-1.578-4.47L.89,10.145a.929.929,0,0,0,.023.142Zm14.785.618a.787.787,0,0,0,.121-.02l-4.729-7.123H10.629L5.9,24.087a.786.786,0,0,0,.121.02Zm5.108-13.82a.93.93,0,0,0,.023-.142l-7.449,1.84-1.578,4.47,4.7,7.08c.006-.016.017-.029.022-.045l4.282-13.2Z" transform="translate(3 3)" fill="#191919" stroke="#191919" stroke-width="0.5"/></g></g></svg>